<svg id="Layer_1" data-name="Layer 1" xmlns="http://www.w3.org/2000/svg" viewBox="0 0 227.07021 250"><defs><style>.cls-1{fill:#fff;}.cls-2{fill:#00aeef;}.cls-3{fill:#58595b;}</style></defs><rect class="cls-1" x="59.637" y="50.8369" width="100.53563" height="70.48937"/><ellipse class="cls-1" cx="179.12273" cy="205.63396" rx="40.05736" ry="41.96551"/><ellipse class="cls-1" cx="40.05736" cy="208.03449" rx="40.05736" ry="41.96551"/><path class="cls-2" d="M60.43124,19.68922A15.28132,15.28132,0,0,0,64.3683,20.9759a15.7935,15.7935,0,0,1,7.36781,3.29783c4.34072,3.70927,4.349,11.45212,4.35612,18.28346.00116,1.04912.00232,2.11595.02527,3.05325h45.913c1.77261-1.281,3.79955-2.82168,3.96435-3.50578a22.35613,22.35613,0,0,0-.86929-5.30255,19.35186,19.35186,0,0,1-.68082-8.81168c1.22266-6.33509,8.797-9.28686,14.88349-11.65868,1.27843-.4982,2.58652-1.008,3.53508-1.44505a68.38223,68.38223,0,0,0-17.62188-2.29749h-66.745c.02194.1089.04459.22044.06623.328C59.07244,15.44635,59.76688,18.89205,60.43124,19.68922Z"/><path class="cls-1" d="M125.24141,12.58921a68.385,68.385,0,0,1,17.62188,2.29746c-.94859.43709-2.25669.94687-3.53511,1.44507-6.08644,2.37184-13.66081,5.32363-14.88347,11.65869a19.35174,19.35174,0,0,0,.68083,8.81171,22.35622,22.35622,0,0,1,.86929,5.30252c-.1648.6841-2.19177,2.22476-3.96435,3.5058h-45.913c-.02295-.9373-.02408-2.00414-.02527-3.05326-.00713-6.83136-.0154-14.57421-4.35613-18.28345a15.79334,15.79334,0,0,0-7.36777-3.29784,15.28211,15.28211,0,0,1-3.93706-1.28669c-.66436-.79718-1.3588-4.24288-1.86859-6.772-.02164-.10754-.04429-.21907-.06623-.328h66.745m0-8.62831H47.95887l2.07887,10.3305.03614.17906.03026.15005c1.04514,5.18529,1.732,8.23261,3.6989,10.59268l1.1034,1.324,1.52735.79849a23.37842,23.37842,0,0,0,6.01159,2.05152,7.84462,7.84462,0,0,1,3.67524,1.43751c.04785.05512.59557.733.96328,3.18828a62.35742,62.35742,0,0,1,.38,8.55322v.00827c.00125,1.08717.0025,2.21138.02783,3.24713l.206,8.4172H124.822l2.26245-1.63513c3.7266-2.69311,6.43143-4.87775,7.29875-8.47837l.254-1.05466-.01493-1.08473a30.50012,30.50012,0,0,0-1.12522-7.273c-.56258-2.25549-.86685-3.60371-.58053-5.08677.03168-.164.42572-.79141,1.85123-1.71878a45.51221,45.51221,0,0,1,7.69327-3.53612c1.39025-.54177,2.82783-1.102,4.01291-1.648l19.8821-6.85941L145.084,6.54908a77.12311,77.12311,0,0,0-19.8426-2.58818Z"/><path class="cls-2" d="M207.57458,8.69977a11.76067,11.76067,0,0,0-8.74192,2.59324,12.65164,12.65164,0,0,0-4.61789,8.65226,12.97871,12.97871,0,0,0,1.1707,6.847L177.7737,37.06q-1.26006-1.46847-2.60331-2.87659a69.86513,69.86513,0,0,0-24.49747-16.70152,4.42119,4.42119,0,0,1-1.9775,4.29855,36.20552,36.20552,0,0,1-6.15386,2.79764,55.5167,55.5167,0,0,0-6.80237,2.99887c-2.29194,1.29751-2.606,2.09848-2.60842,2.10626-.2738,1.42206.02681,2.75128.582,4.97691a30.6685,30.6685,0,0,1,1.13087,7.31919,8.7981,8.7981,0,0,1-1.224,4.64776c14.91164,3.68121,26.422,16.969,28.496,33.41076l.18162.125a58.37368,58.37368,0,0,0,6.23771,3.93049c2.28858,1.15771,3.164,1.067,3.27618,1.04812,1.23607-.60845,2.07759-1.645,3.45087-3.41553a28.80112,28.80112,0,0,1,4.96413-5.28182c4.1006-3.24462,8.96441-1.44279,14.11361.46437.22522.08343.45482.16841.68692.254a73.90422,73.90422,0,0,0-9.68195-29.48814l13.57362-16.39455a11.76814,11.76814,0,0,0,14.83872-.06233,12.65145,12.65145,0,0,0,4.61771-8.65221A12.53225,12.53225,0,0,0,207.57458,8.69977Zm6.6933,13.45356a8.5536,8.5536,0,0,1-3.108,5.85618,7.6514,7.6514,0,0,1-9.61037.09251l2.66963-3.22445a3.89383,3.89383,0,0,0,1.65416.5794,4.084,4.084,0,0,0,4.43213-3.76,4.18056,4.18056,0,0,0-3.58906-4.64329,4.08405,4.08405,0,0,0-4.43217,3.76006,4.39541,4.39541,0,0,0,.204,1.83759l-3.51909,2.05165a8.90054,8.90054,0,0,1-.64739-4.34567,8.55386,8.55386,0,0,1,3.10808-5.85619,7.63111,7.63111,0,0,1,5.69293-1.6985A8.395,8.395,0,0,1,214.26788,22.15333Z"/><path class="cls-1" d="M206.27719,8.62825a11.84163,11.84163,0,0,1,1.29739.07152,12.53224,12.53224,0,0,1,10.80034,13.86555,12.65143,12.65143,0,0,1-4.61771,8.6522,11.77225,11.77225,0,0,1-14.83876.06237L185.34486,47.67441a73.90418,73.90418,0,0,1,9.682,29.48813c-.2321-.08566-.4617-.17062-.687-.254-3.09131-1.145-6.07936-2.25187-8.86153-2.25187a8.15143,8.15143,0,0,0-5.252,1.7875,28.79861,28.79861,0,0,0-4.96412,5.2818c-1.37331,1.77059-2.21484,2.80708-3.45087,3.41553a.90183.90183,0,0,1-.14578.00951,7.67054,7.67054,0,0,1-3.13043-1.05762,58.37376,58.37376,0,0,1-6.23768-3.93049l-.18162-.125c-2.07411-16.44175-13.58441-29.72956-28.496-33.41074a8.79875,8.79875,0,0,0,1.224-4.64779,30.67032,30.67032,0,0,0-1.13087-7.31915c-.55527-2.22565-.85585-3.55485-.58208-4.97691.00243-.00779.31651-.80876,2.60845-2.10627a55.51217,55.51217,0,0,1,6.80234-2.99887,36.20526,36.20526,0,0,0,6.15386-2.79763,4.42113,4.42113,0,0,0,1.9775-4.29858,69.86511,69.86511,0,0,1,24.49747,16.70153q1.34334,1.40738,2.60334,2.87657l17.61177-10.26777a12.97815,12.97815,0,0,1-1.1707-6.847,12.65167,12.65167,0,0,1,4.61789-8.65227,11.78529,11.78529,0,0,1,7.44452-2.66475m-7.308,16.07467,3.51912-2.05164a4.39465,4.39465,0,0,1-.204-1.83756,4.10749,4.10749,0,0,1,4.00567-3.78355,3.90154,3.90154,0,0,1,.42649.02348,4.18052,4.18052,0,0,1,3.589,4.64327,4.10774,4.10774,0,0,1-4.00573,3.78356,3.89325,3.89325,0,0,1-2.08053-.60289L201.54956,28.102a7.64876,7.64876,0,0,0,9.61037-.0925,8.55365,8.55365,0,0,0,3.108-5.85619,8.395,8.395,0,0,0-7.14507-9.35075,7.63133,7.63133,0,0,0-5.69293,1.69851,8.55374,8.55374,0,0,0-3.10808,5.85618,8.90059,8.90059,0,0,0,.64736,4.34566M206.27713,0A20.24225,20.24225,0,0,0,199.449,1.18271,20.60574,20.60574,0,0,0,193.40346,4.587a21.21861,21.21861,0,0,0-7.77389,14.4968,21.73837,21.73837,0,0,0-.071,3.45l-6.20135,3.61543a79.99707,79.99707,0,0,0-10.82317-8.85814c-4.59827-3.12913-15.7816-8.0375-20.90066-10.09425l-7.25752-1.743,1.34678,10.167c-.72155.29719-1.52122.60883-2.30948.916a61.81521,61.81521,0,0,0-7.92506,3.53172c-3.59011,2.03244-5.74662,4.335-6.59231,7.03913l-.14559.4655-.09221.47893a19.1735,19.1735,0,0,0,.68309,8.69662,22.83546,22.83546,0,0,1,.87505,5.34675.58617.58617,0,0,1-.0041.09358.84521.84521,0,0,1-.05339.10433l-5.7805,9.952L131.55174,55.004c11.55036,2.85137,20.39293,13.34571,22.00357,26.11377l.48345,3.83246,3.18061,2.19212.09619.0662.0846.05817a64.62878,64.62878,0,0,0,7.24019,4.526,15.74291,15.74291,0,0,0,7.02516,1.98666,9.53083,9.53083,0,0,0,1.58335-.13011l1.24258-.21,1.13057-.55654a18.36981,18.36981,0,0,0,6.45806-5.8687,21.47856,21.47856,0,0,1,3.407-3.729c1.238.00419,3.69034.91256,5.8547,1.71423q.34546.12788.69813.25813l11.92923,4.76781-.36377-13.78763a83.55,83.55,0,0,0-3.68088-17.09919,82.15161,82.15161,0,0,0-4.23836-10.42461l5.64585-6.81916a20.36,20.36,0,0,0,11.8082-.56651,20.60566,20.60566,0,0,0,6.04637-3.40455,21.21875,21.21875,0,0,0,7.77359-14.49686,21.56186,21.56186,0,0,0-4.425-15.41424,20.8523,20.8523,0,0,0-6.06325-5.28582A20.28407,20.28407,0,0,0,208.5189.1233,20.5405,20.5405,0,0,0,206.27713,0Z"/><path class="cls-2" d="M175.17039,136.5739a73.69175,73.69175,0,0,0,20.29344-50.4964c-1.43585-.48262-2.763-.97276-3.99125-1.42768-2.23249-.8269-5.2815-1.95656-6.13617-1.72194a21.08219,21.08219,0,0,0-3.55119,3.85793,17.974,17.974,0,0,1-6.40173,5.79832,8.33483,8.33483,0,0,1-3.6838.82477c-3.12407.00021-6.4042-1.52974-9.50057-3.41562-2.14661,19.76211-17.90067,35.1538-36.95772,35.1538H103.36128c-.55021,1.94284-1.12926,3.70311-1.65739,5.3053-.76638,2.32458-2.04879,6.21482-1.5637,6.87768a20.89,20.89,0,0,0,3.71994,3.70914,18.21723,18.21723,0,0,1,5.55135,6.61c1.4577,3.23887.65372,6.91564-.94841,10.51883H125.2414q.4527,0,.90443-.006l38.86673,56.09732a16.5106,16.5106,0,0,0,27.143-18.80576l-32.33852-46.675A70.93016,70.93016,0,0,0,175.17039,136.5739Z"/><path class="cls-1" d="M185.6222,82.89647c1.11738,0,3.82119,1.00174,5.85036,1.75335,1.22825.45491,2.55543.945,3.99128,1.42767a73.69192,73.69192,0,0,1-20.29347,50.49641,70.93042,70.93042,0,0,1-15.35331,12.20471l32.33853,46.675a16.51061,16.51061,0,1,1-27.143,18.80577L126.14583,158.162q-.45176.00588-.90442.006H108.46308c1.60213-3.60319,2.40608-7.28.94841-10.51884a18.21742,18.21742,0,0,0-5.55138-6.61,20.89011,20.89011,0,0,1-3.71994-3.70915c-.48506-.66282.79735-4.55309,1.56373-6.87767.5281-1.60219,1.10715-3.36247,1.65736-5.30531h21.88015c19.057,0,34.81108-15.39168,36.95772-35.15381,3.09619,1.88577,6.37608,3.41561,9.5,3.41561h.0006a8.33453,8.33453,0,0,0,3.6838-.82475,17.97413,17.97413,0,0,0,6.4017-5.79831,21.0831,21.0831,0,0,1,3.55122-3.85793,1.10021,1.10021,0,0,1,.28578-.03142m0-8.62831A9.7078,9.7078,0,0,0,183.05,74.608l-1.69827.46675-1.37949,1.095a29.14955,29.14955,0,0,0-5.005,5.32805c-1.31944,1.70088-2.13344,2.70608-3.26806,3.28278h-.00047c-.3447,0-1.72615-.1555-5.01133-2.1564l-11.59948-7.06484-1.46664,13.50219c-1.70023,15.65317-13.90093,27.45724-28.37983,27.45724H96.83715L95.05946,122.796c-.50712,1.79072-1.06132,3.47213-1.55024,4.9556-.41175,1.24888-.97606,2.96046-1.39828,4.558a22.91818,22.91818,0,0,0-.59575,2.88532,9.72473,9.72473,0,0,0,1.66182,7.23056,28.98575,28.98575,0,0,0,5.1357,5.22244c1.67116,1.40149,2.64639,2.25776,3.22193,3.52334.016.1011.12354,1.06414-.95561,3.49127l-5.39514,12.13387h26.44726l36.28908,52.3769a25.13889,25.13889,0,1,0,41.3277-28.63348l-27.35965-39.48886a80.64256,80.64256,0,0,0,9.52339-8.51933,82.34783,82.34783,0,0,0,22.68012-56.37605l-.39395-6.41293L198.213,77.89887c-1.35244-.45459-2.62284-.92508-3.74366-1.34026-3.73689-1.3841-6.36919-2.29045-8.84709-2.29045Z"/><path class="cls-2" d="M98.55515,147.3644a28.66486,28.66486,0,0,1-5.07617-5.15834c-2.99384-4.09-1.42833-8.83912.38465-14.33833.28331-.85946.58229-1.7693.88076-2.72065H67.2554v-.38726h-.582a11.66177,11.66177,0,0,1-11.38123-11.92336V91.0892c-2.44407.924-4.68655,1.596-6.67963,2.19118-2.19391.65508-5.866,1.75151-6.086,2.48007a22.582,22.582,0,0,0-.77994,5.37939,19.01625,19.01625,0,0,1-1.976,8.48208c-2.94869,5.39547-10.63375,5.82342-16.99152,6.06439v92.38595a16.5106,16.5106,0,0,0,33.0212,0V158.168H99.175a35.42229,35.42229,0,0,0,1.906-3.703c1.10937-2.60082.80585-3.42009.80249-3.42771C101.27579,149.68714,100.27389,148.80567,98.55515,147.3644Z"/><path class="cls-1" d="M55.29222,91.08918v21.74728a11.66176,11.66176,0,0,0,11.38123,11.92336h.582v.38726h27.489c-.29844.95136-.59742,1.86119-.88076,2.72064-1.813,5.49921-3.37846,10.24839-.38465,14.33833a28.66727,28.66727,0,0,0,5.07619,5.15838c1.71872,1.44123,2.72064,2.32268,3.32829,3.67283.00339.00761.30688.82687-.80247,3.42768a35.4141,35.4141,0,0,1-1.906,3.70307H55.8004v49.90428a16.5106,16.5106,0,0,1-33.02119,0v-92.386c6.35777-.241,14.04283-.66891,16.99152-6.06444a19.01579,19.01579,0,0,0,1.976-8.482,22.58269,22.58269,0,0,1,.77993-5.37942c.22-.72853,3.89206-1.825,6.086-2.48007,1.99308-.5951,4.23556-1.26719,6.67963-2.19117M63.92053,78.603,52.24109,83.01837c-2.18778.82711-4.26475,1.44724-6.09713,1.99439-1.18973.35525-2.81737.84129-4.28461,1.37911a21.55641,21.55641,0,0,0-2.61612,1.13048,9.53832,9.53832,0,0,0-4.97668,5.74427,30.72844,30.72844,0,0,0-1.13158,7.33951c-.137,2.20642-.2554,3.62461-.928,4.8638a5.80814,5.80814,0,0,1-2.52065.93123,45.29652,45.29652,0,0,1-7.23395.663l-8.30151.31464V208.07229a25.13891,25.13891,0,1,0,50.27781,0v-41.276h39.72592l2.49128-4.31177a42.88369,42.88369,0,0,0,2.37172-4.63483,18.44763,18.44763,0,0,0,1.45119-5.06416,9.92129,9.92129,0,0,0-.70235-5.25623l-.00743-.01668-.00749-.01662a18.52342,18.52342,0,0,0-5.65227-6.743,20.58317,20.58317,0,0,1-3.65794-3.64328l-.00321-.0044a5.34584,5.34584,0,0,1,.16129-1.58641,48.61158,48.61158,0,0,1,1.45862-4.94965c.30736-.93221.6089-1.85085.91911-2.83981l3.51645-11.21069H75.88372v-.38726H66.67345a3.06433,3.06433,0,0,1-2.75292-3.29505V78.603Z"/><path class="cls-2" d="M32.52732,105.662c.75294-1.37785.84812-2.9112.9798-5.03332a30.00388,30.00388,0,0,1,1.11672-7.25455c1.50411-4.98133,6.42109-6.44959,11.62682-8.004,1.99772-.59639,4.26208-1.27251,6.61793-2.19087a4.108,4.108,0,0,1,2.42362-.17636V57.94383A11.66178,11.66178,0,0,1,66.67344,46.02047h.582v-.41h.01c-.00416-.19738-.00719-.39942-.01-.60256v-.5018h-.00547c-.00559-.6224-.00725-1.26717-.008-1.9396a72.67665,72.67665,0,0,0-.28126-7.76845c-.33721-2.9237-.91757-3.71859-.9964-3.81478-.87689-.74015-1.782-.97126-3.5684-1.37969a23.31045,23.31045,0,0,1-6.23756-2.16251c-4.14425-2.2203-5.083-6.87814-6.27157-12.77526-.13406-.66518-.27484-1.36072-.42424-2.07658H39.28977A16.51059,16.51059,0,0,0,22.7792,29.09982v78.325a46.75258,46.75258,0,0,0,6.74527-.60813C32.025,106.32715,32.52339,105.6684,32.52732,105.662Z"/><path class="cls-1" d="M49.46255,12.58921c.1494.71584.29018,1.41141.42424,2.07661,1.18854,5.89708,2.12732,10.55492,6.27157,12.77522a23.30934,23.30934,0,0,0,6.23756,2.16252c1.78637.40842,2.6915.63957,3.5684,1.37967.07883.09619.65919.8911.99639,3.81483a72.67076,72.67076,0,0,1,.28126,7.76841c.00072.67245.00238,1.31719.008,1.93964h.00547v.50176c.00279.20314.00583.40522.01.60259h-.01v.41h-.582A11.66176,11.66176,0,0,0,55.29222,57.94385V83.00291a4.10915,4.10915,0,0,0-2.42362.17636c-2.35585.91837-4.62021,1.5945-6.61793,2.19088-5.20573,1.55442-10.12272,3.02265-11.62682,8.004a30.00361,30.00361,0,0,0-1.11672,7.25458c-.13168,2.12212-.22686,3.65547-.9798,5.0333-.00393.00645-.5023.66516-3.00285,1.15467a46.75127,46.75127,0,0,1-6.74527.6081V29.09983A16.51061,16.51061,0,0,1,39.28978,12.58921H49.46255M56.47618,3.9609H39.28978A25.12529,25.12529,0,0,0,14.1509,29.09983v87.29585l8.96408-.34916a54.08007,54.08007,0,0,0,8.067-.76224,17.57242,17.57242,0,0,0,4.74838-1.56445,9.7956,9.7956,0,0,0,3.96125-3.56174l.108-.17681.09934-.18177a19.32293,19.32293,0,0,0,2.02-8.63639,22.02141,22.02141,0,0,1,.76085-5.28118,5.40651,5.40651,0,0,1,1.32308-.73246,43.9413,43.9413,0,0,1,4.51652-1.51174c1.70843-.51,3.76554-1.12412,5.95945-1.92133l9.24178,2.1328V57.94385a3.06435,3.06435,0,0,1,2.75292-3.295h9.21027v-.41h.19375l-.18573-8.81011c-.00327-.15754-.00576-.31836-.008-.48024V35.8778h-.1673c-.046-.69742-.10594-1.38918-.18417-2.06781-.43631-3.783-1.35613-6.419-2.89472-8.29628l-.50235-.61293-.60569-.51116a15.66438,15.66438,0,0,0-7.21035-3.19731,15.24025,15.24025,0,0,1-4.06588-1.346,5.54982,5.54982,0,0,1-.6624-1.5324A54.02518,54.02518,0,0,1,58.345,12.96113c-.12764-.63345-.27716-1.373-.43613-2.13452L56.47618,3.9609Z"/><ellipse class="cls-2" cx="75.72108" cy="75.80598" rx="10.08177" ry="10.56202"/><ellipse class="cls-2" cx="137.0467" cy="75.80598" rx="10.08177" ry="10.56202"/><path class="cls-2" d="M107.40253,110.77032a26.36455,26.36455,0,0,1-19.19937-8.32494,2.88933,2.88933,0,1,1,4.18009-3.99,20.52422,20.52422,0,0,0,30.03853,0,2.88933,2.88933,0,1,1,4.18009,3.99A26.36473,26.36473,0,0,1,107.40253,110.77032Z"/><path class="cls-3" d="M72.04474,207.96a2.06379,2.06379,0,0,0-2.06368-2.05848h-.00544c-.02187.00006-.04307.00271-.0648.00344q-.04931-.7705-.13394-1.53046c.02235-.00318.04456-.00484.06691-.00876a2.06381,2.06381,0,0,0,1.6763-2.38927,34.43788,34.43788,0,0,0-1.5527-5.81147,2.06411,2.06411,0,0,0-2.64511-1.23378c-.02158.00786-.04167.018-.06284.02652q-.30943-.70538-.651-1.39148c.02021-.01088.04067-.021.0607-.03261a2.06378,2.06378,0,0,0,.74682-2.82146,33.54766,33.54766,0,0,0-3.48351-4.91556,2.06384,2.06384,0,0,0-2.90969-.22883c-.01814.0155-.03395.03264-.05143.04862q-.53781-.55076-1.1015-1.073c.01587-.01828.03317-.0345.04851-.05347a2.06387,2.06387,0,0,0-.30861-2.90232,31.92179,31.92179,0,0,0-5.03974-3.3372,2.06371,2.06371,0,0,0-2.79169.8514c-.01165.02183-.02045.04435-.03121.0664q-.701-.312-1.41986-.58756c.008-.0235.01724-.0463.0245-.07026a2.06387,2.06387,0,0,0-1.37771-2.57308,30.74745,30.74745,0,0,0-5.94376-1.17326,2.06385,2.06385,0,0,0-2.25217,1.85646c-.00243.025-.0019.04952-.00338.07437-.23846-.00588-.47751-.00951-.71734-.00951q-.41056,0-.81845.01207c-.00161-.02487-.00119-.04943-.00369-.07443a2.0637,2.0637,0,0,0-2.25882-1.84838,30.761,30.761,0,0,0-5.93948,1.19431,2.06386,2.06386,0,0,0-1.36855,2.578c.00737.02413.0167.0471.02491.07075q-.71724.27744-1.41653.59225c-.01094-.02227-.01992-.045-.03175-.06706a2.06371,2.06371,0,0,0-2.79465-.84188,31.94517,31.94517,0,0,0-5.02828,3.354,2.0638,2.0638,0,0,0-.299,2.90333c.0154.0189.03276.03506.04864.05327q-.56217.52419-1.09865,1.077c-.01748-.01587-.03329-.0329-.05143-.04828a2.06381,2.06381,0,0,0-2.90892.23821,33.568,33.568,0,0,0-3.46858,4.9281A2.06379,2.06379,0,0,0,13.4,193.62564c.01986.01147.04013.02142.06022.03215q-.33939.68783-.64723,1.39494c-.021-.00833-.04085-.01831-.06225-.026a2.06363,2.06363,0,0,0-2.641,1.24234,34.45182,34.45182,0,0,0-1.534,5.81629,2.06384,2.06384,0,0,0,1.68388,2.384c.02241.00386.04465.00551.067.00861q-.08194.75994-.12895,1.53052c-.02134-.00065-.04227-.00322-.06379-.00322h-.00226a2.06377,2.06377,0,0,0-2.06162,2.066,35.1607,35.1607,0,0,0,.51835,5.98526,2.06135,2.06135,0,0,0,2.38753,1.67876c.02224-.00388.0434-.01026.06534-.01482q.18049.75009.395,1.48544c-.02152.007-.04328.01207-.0648.01987a2.06381,2.06381,0,0,0-1.23658,2.64377,34.02459,34.02459,0,0,0,2.54556,5.4556,2.0628,2.0628,0,0,0,2.8207.74991c.02009-.01165.03822-.02529.05778-.03751q.42885.63934.88665,1.25512c-.01819.01446-.03722.0271-.055.04227a2.06383,2.06383,0,0,0-.2321,2.9094,32.848,32.848,0,0,0,4.318,4.2138,2.06374,2.06374,0,0,0,2.90274-.30528c.01522-.0188.02776-.0388.04221-.058q.62922.44172,1.2808.85008c-.01242.0214-.02634.04143-.03811.06343a2.0638,2.0638,0,0,0,.84818,2.79276,31.08625,31.08625,0,0,0,5.59312,2.3197A2.06165,2.06165,0,0,0,33.68,238.74623c.00755-.02474.012-.04961.01855-.0744q.74658.16928,1.50659.2993c-.00345.02534-.00874.05-.01123.07562a2.06383,2.06383,0,0,0,1.85367,2.25449c.99377.097,2.00634.14613,3.00974.14613,1.01471,0,2.03886-.05029,3.04406-.14946a2.0638,2.0638,0,0,0,1.85123-2.25645c-.00256-.02572-.00791-.05043-.01136-.07583q.75969-.1307,1.50624-.301c.00654.0248.01112.04968.01861.07442a2.0615,2.0615,0,0,0,2.5763,1.37164,31.09148,31.09148,0,0,0,5.58936-2.32523,2.06389,2.06389,0,0,0,.84527-2.79365c-.01177-.02194-.02568-.04189-.0381-.06324q.65072-.40935,1.28-.85136c.01438.01909.027.039.04215.05774a2.0636,2.0636,0,0,0,2.903.30225,32.85706,32.85706,0,0,0,4.31422-4.21862,2.06384,2.06384,0,0,0-.23507-2.90921c-.01784-.01521-.037-.02789-.05523-.04238q.45792-.61655.88641-1.25739c.01962.01223.03781.0259.058.03757a2.06283,2.06283,0,0,0,2.81992-.75282,34.03024,34.03024,0,0,0,2.54033-5.45983,2.06386,2.06386,0,0,0-1.23949-2.64246c-.02152-.0078-.04334-.01282-.065-.01986q.21358-.73548.39339-1.48588c.022.00454.04322.01091.06551.01478a2.06169,2.06169,0,0,0,2.38576-1.68133,35.16134,35.16134,0,0,0,.51207-5.98263Z"/><ellipse class="cls-1" cx="40.05736" cy="208.03449" rx="24.17392" ry="25.32546"/><ellipse class="cls-3" cx="40.05736" cy="208.03449" rx="8.06541" ry="8.44961"/><path class="cls-3" d="M211.821,205.49306a2.06388,2.06388,0,0,0-2.06371-2.05854h-.00547c-.02185.00006-.043.00271-.06472.00344q-.04935-.77058-.134-1.53058c.02236-.00318.04459-.00483.06694-.00877a2.06389,2.06389,0,0,0,1.67621-2.38938,34.4432,34.4432,0,0,0-1.55279-5.81135,2.06357,2.06357,0,0,0-2.64507-1.23366c-.02158.00785-.04159.018-.06272.02648q-.30954-.70542-.65111-1.39154c.02024-.01088.0407-.021.0607-.03263a2.0638,2.0638,0,0,0,.74682-2.82153,33.55812,33.55812,0,0,0-3.48351-4.91543,2.06373,2.06373,0,0,0-2.90969-.22883c-.01813.01551-.034.03266-.05146.04866q-.53777-.55074-1.10147-1.073c.01585-.01828.03321-.0345.04851-.05347a2.06381,2.06381,0,0,0-.3086-2.90232,31.925,31.925,0,0,0-5.03975-3.3372,2.06377,2.06377,0,0,0-2.79174.85139c-.01163.02184-.0204.04437-.03119.06644q-.70106-.312-1.41983-.58755c.008-.02349.01721-.04629.02444-.07024a2.06377,2.06377,0,0,0-1.37765-2.57309,30.74968,30.74968,0,0,0-5.94382-1.17325,2.06342,2.06342,0,0,0-2.25216,1.85646c-.00238.025-.00188.04953-.00339.07439-.23843-.00588-.47739-.00951-.71716-.00951q-.41073,0-.81863.01208c-.00161-.02489-.00119-.04945-.00369-.07446a2.06371,2.06371,0,0,0-2.25882-1.84838,30.756,30.756,0,0,0-5.93942,1.19436,2.06383,2.06383,0,0,0-1.36861,2.5779c.00743.02415.01676.04713.02494.07081q-.7172.27742-1.4165.59225c-.011-.02229-.01995-.04506-.03181-.06713a2.064,2.064,0,0,0-2.79459-.84194,31.94519,31.94519,0,0,0-5.02834,3.354,2.06384,2.06384,0,0,0-.299,2.90333c.01539.01893.03281.03511.04872.05334q-.56213.52418-1.09865,1.07693c-.01748-.01588-.03329-.03293-.05146-.04833a2.0637,2.0637,0,0,0-2.90892.23828,33.56466,33.56466,0,0,0-3.46852,4.928,2.06384,2.06384,0,0,0,.75591,2.81909c.01989.01147.04019.02142.06028.03216q-.33948.68787-.64735,1.395c-.021-.00833-.04079-.01831-.06219-.026a2.06389,2.06389,0,0,0-2.64109,1.24234,34.45821,34.45821,0,0,0-1.53395,5.81629,2.06381,2.06381,0,0,0,1.68388,2.384c.02241.00386.04465.00551.067.00862q-.08195.75994-.12892,1.53051c-.02137-.00065-.04227-.00322-.06382-.00322h-.00214a2.06387,2.06387,0,0,0-2.06174,2.06591,35.16491,35.16491,0,0,0,.51841,5.98531,2.06141,2.06141,0,0,0,2.38753,1.67877c.02227-.00388.04337-.01026.06534-.01481q.18045.75.395,1.48537c-.02158.007-.04331.01208-.0648.01987a2.0638,2.0638,0,0,0-1.23658,2.64376,34.02072,34.02072,0,0,0,2.5455,5.45567,2.06294,2.06294,0,0,0,2.82076.74985c.02009-.01164.03822-.0253.05775-.03751q.42885.63933.88668,1.2551c-.01819.01449-.03728.02715-.05511.04235a2.0637,2.0637,0,0,0-.232,2.90939,32.85054,32.85054,0,0,0,4.3179,4.21374,2.06366,2.06366,0,0,0,2.90268-.30528c.01525-.0188.02785-.03882.04233-.058q.62913.4417,1.28074.85008c-.01242.02144-.0264.04149-.03817.06353a2.06389,2.06389,0,0,0,.84825,2.79269,31.09113,31.09113,0,0,0,5.59317,2.31971,2.06165,2.06165,0,0,0,2.57475-1.37456c.00755-.02475.012-.04963.0186-.07443q.74659.16929,1.5066.2993c-.00342.02541-.00877.0501-.01129.07583a2.06382,2.06382,0,0,0,1.85379,2.25437c.99389.0969,2.00645.14607,3.00945.14607h.002c1.014,0,2.03779-.0503,3.04232-.14946a2.06382,2.06382,0,0,0,1.85112-2.25657c-.00253-.0257-.00791-.05038-.01136-.07576q.75973-.13068,1.50618-.30094c.0066.02483.01112.04974.01867.07451a2.06175,2.06175,0,0,0,2.5763,1.37171,31.09438,31.09438,0,0,0,5.58948-2.32541,2.06381,2.06381,0,0,0,.84509-2.79365c-.01174-.02194-.02565-.04189-.038-.06323q.65071-.40937,1.27994-.85137c.01444.0191.02705.03905.04224.0578a2.06362,2.06362,0,0,0,2.903.30225,32.86058,32.86058,0,0,0,4.3141-4.21862,2.0639,2.0639,0,0,0-.235-2.90922c-.0179-.01522-.037-.02789-.05526-.0424q.45788-.61654.88638-1.2574c.01965.01225.03787.02593.058.03761a2.0629,2.0629,0,0,0,2.81992-.75295,34.03575,34.03575,0,0,0,2.54027-5.45976,2.06387,2.06387,0,0,0-1.23943-2.64246c-.02155-.0078-.0434-.01283-.065-.01987q.21363-.73548.39342-1.48585c.02205.00456.04328.01094.0656.01481a2.06155,2.06155,0,0,0,2.3857-1.68144,35.1797,35.1797,0,0,0,.512-5.98525Z"/><ellipse class="cls-1" cx="179.83365" cy="205.56755" rx="24.17392" ry="25.32546"/><ellipse class="cls-3" cx="179.12273" cy="205.63396" rx="8.06541" ry="8.44961"/></svg>