<svg id="Layer_1" data-name="Layer 1" xmlns="http://www.w3.org/2000/svg" viewBox="0 0 1010.85879 250"><defs><style>.cls-1,.cls-3{fill:#fff;}.cls-1{stroke:#fff;}.cls-1,.cls-2{stroke-miterlimit:10;stroke-width:7.8287px;}.cls-2,.cls-4{fill:#00aeef;}.cls-2{stroke:#00aeef;}.cls-5{fill:#58595b;}</style></defs><path class="cls-1" d="M239.453,239.32482c-19.8562-1.11772-36.06-7.58676-48.16133-19.22774a65.77987,65.77987,0,0,1-15.27554-22.75588,85.71907,85.71907,0,0,1-5.86228-26.069l-.21-2.82964.27876-2.82325c1.7694-17.91841,7.48067-32.90377,16.97525-44.54019a65.20059,65.20059,0,0,1,18.63325-15.67072A71.193,71.193,0,0,1,221.871,98.8679a33.57341,33.57341,0,0,1,17.96566-5.20628l8.64432,1.856,5.02839.90077,3.18549.89085c16.91256,4.73026,30.431,13.04694,40.18,24.71934A69.50569,69.50569,0,0,1,309.04776,143.506a82.39079,82.39079,0,0,1,4.48349,23.91452l.083,1.91158-.13982,1.9081a85.41907,85.41907,0,0,1-6.02949,26.54854,65.3919,65.3919,0,0,1-15.83271,23.01855c-12.43552,11.57175-29.05786,17.81136-49.40534,18.5453l-1.37755.04969Zm-.78079-73.45841"/><path class="cls-1" d="M338.70168,240.07611c-5.5902,0-10.44637,1.20339-15.62906,0H320.7594l-21.632-1.51173-6.9294-1.83174a40.96532,40.96532,0,0,1-19.42062-21.20909,47.68258,47.68258,0,0,1-2.968-23.68236c.78362-12.67266.97516-25.99853.56919-39.62543l-.01455-.48862v-.48863a358.848,358.848,0,0,0-1.85843-38.03589l-.18845-1.75028v-1.76106a35.82624,35.82624,0,0,1,13.43653-28.09405,32.95575,32.95575,0,0,1,14.933-7.40209l9.72818-.57884L316.796,75.22084c9.828,2.92719,15.3742,8.25965,21.68652,17.33219l3.5951,5.167a83.64585,83.64585,0,0,1,24.66831,5.21633,64.6006,64.6006,0,0,1,22.88692,14.88253,66.34678,66.34678,0,0,1,14.80727,23.45786,88.90218,88.90218,0,0,1,5.281,26.50671l.07938,1.47446-.05336,1.47574a85.65743,85.65743,0,0,1-5.08154,26.95971A63.6665,63.6665,0,0,1,389.221,221.50232c-12.41915,11.95169-29.23729,18.19915-49.98724,18.56905l-.266.00474Z"/><path class="cls-1" d="M428.45415,239.32482c-19.85624-1.11772-36.06005-7.58676-48.16133-19.22774a65.77991,65.77991,0,0,1-15.2755-22.75588,85.7179,85.7179,0,0,1-5.86232-26.069l-.21-2.82964.27876-2.82325c1.76945-17.91841,7.48071-32.90377,16.9753-44.54019a65.20022,65.20022,0,0,1,18.63316-15.67072,71.195,71.195,0,0,1,16.03991-6.54046,33.26628,33.26628,0,0,1,17.89511-5.48247l8.56725,1.46951,5.176,1.56344,3.18554.89085c16.91256,4.73026,30.431,13.04694,40.18,24.71934A69.50569,69.50569,0,0,1,498.04887,143.506a82.39112,82.39112,0,0,1,4.4835,23.91452l.083,1.91158-.13982,1.9081a85.41879,85.41879,0,0,1-6.02949,26.54854,65.39134,65.39134,0,0,1-15.83275,23.01855c-12.43544,11.57175-29.05782,17.81136-49.4053,18.5453l-1.37759.04969Zm-.78079-73.45841"/><path class="cls-1" d="M502.35343,240.86522a42.43452,42.43452,0,0,1-25.09362-11.27766,45.25023,45.25023,0,0,1-13.06278-24.5427l-.59831-3.08738V185.40339l.073-1.09251c1.45636-21.79379,1.762-31.43716,1.762-35.68939,0-37.28277-1.8137-49.42607-2.43661-52.4961a34.10473,34.10473,0,0,1-2.128-8.04944,35.79344,35.79344,0,0,1,.3461-11.73907,44.74131,44.74131,0,0,1,3.80119-11.06175l2.236-4.61537,4.453-4.59564c7.0924-7.31988,15.61983-9.5,22.25657-10.58152,3.93526-.64134,8.89194-1.13782,15.15311-1.51794l.90379-.0548h.90539A31.84985,31.84985,0,0,1,533.8576,53.93372a44.93449,44.93449,0,0,1,5.4548,6.97666l7.66488,11.86583,4.16484,4.179c8.6076-4.34173,9.49191-.8,17.2774-6.01328,1.25591-10.7419,7.926-22.8505,23.59532-28.24109l13.49967-.82062,12.09518,3.72041a65.01462,65.01462,0,0,1,19.54155,18.01685,51.01083,51.01083,0,0,1,9.17964,29.13524v7.50656l-3.25271,6.714c-5.83056,12.035-16.83238,22.1604-35.67262,32.83107q-4.121,2.33417-8.7638,4.71419c14.05675,10.30534,27.4443,17.81154,40.04576,22.43567l11.68819,4.28913,5.54764,11.451a36.75339,36.75339,0,0,1,0,32.22882l-4.593,9.48043-9.18583,4.74013c-12.2404,6.31633-23.38638,9.38709-34.07485,9.38745a49.0949,49.0949,0,0,1-27.98978-8.53021l-1.11255-.76536-1.04406-.862c-3.31457-2.73667-7.28939-6.15394-11.81412-10.15665l-.22212-.19637-.21841-.20074c-8.15247-7.4936-15.1285-13.87953-21.09525-19.31889a42.44516,42.44516,0,0,1-7.17028,23.85242,44.61771,44.61771,0,0,1-20.54136,16.39535l-7.01415,1.86136Z"/><path class="cls-1" d="M674.06694,239.40592c-.94556,0-1.90608-.02082-2.85536-.06192l-.24088-.01041-.24071-.01443c-19.54669-1.16357-35.2905-7.77216-46.79435-19.6422a62.37223,62.37223,0,0,1-14.07684-23.13364,82.84876,82.84876,0,0,1-4.32155-25.66571l-.02274-1.19554.06425-1.19407c1.09485-20.34071,7.36319-36.87817,18.63068-49.15317a62.21472,62.21472,0,0,1,22.08772-15.40568,77.22382,77.22382,0,0,1,25.08008-5.55955l1.52485-.09243,1.52618.06338a79.572,79.572,0,0,1,13.75445,1.76472,33.9287,33.9287,0,0,1,10.31874-3.9839l9.14679-.15835,8.403,1.82388a45.30274,45.30274,0,0,1,16.61132,11.636,44.17218,44.17218,0,0,1,10.16379,20.07858l1.28388,5.91684-.91592,5.98936a125.99452,125.99452,0,0,0-1.03813,23.39649c.9014,11.25866,2.34873,17.777,3.41315,21.27813l1.41334,4.64843v4.87183c0,21.37987-14.06825,37.97268-35.00705,41.28894l-2.32307.36789h-2.35033a36.03014,36.03014,0,0,1-11.15173-1.71229,65.06405,65.06405,0,0,1-22.07808,3.85877Z"/><path class="cls-1" d="M742.76955,239.94989c-14.081-1.29855-22.39656-8.34115-26.893-14.02053a38.29932,38.29932,0,0,1-7.90911-27.16284c.41858-7.03785.82857-14.414,1.22069-21.9602-.46044-7.11676-.87087-13.70672-1.25113-20.08844a114.37314,114.37314,0,0,0-1.51255-14.05945l-.59283-3.07368V122.5l6.72948-8.70192c4.60332-5.95247,12.9588-13.322,26.996-15.63657a31.71155,31.71155,0,0,1,6.71789-.72389,34.11431,34.11431,0,0,1,18.63343,5.6918,65.03949,65.03949,0,0,1,13.52675-1.97405l1.41317-.05662,1.41237.07745c15.2747.83678,28.17085,5.60448,38.33012,14.171l2.29519,1.93532,1.89556,2.35125a39.31262,39.31262,0,0,1,8.82893,24.91625,42.2861,42.2861,0,0,1-6.382,22.12587l-.51327.84811-.56389.813a39.28871,39.28871,0,0,1-9.22954,9.5376,33.1664,33.1664,0,0,1-19.4997,6.40913,32.7106,32.7106,0,0,1-11.83677-2.23088l-1.54813,19.02717a45.4439,45.4439,0,0,1-7.67327,22.50418,38.6109,38.6109,0,0,1-23.19347,15.74032l-4.65357,1.0631Z"/><path class="cls-1" d="M845.94294,239.39076c-.88061,0-1.78459-.00785-2.68679-.0232l-.19124-.00329-.19123-.00566c-21.82065-.65193-38.54409-5.56887-51.08988-15.02665a40.14591,40.14591,0,0,1-17.0384-32.95455,37.32225,37.32225,0,0,1,4.5457-17.89392,36.5579,36.5579,0,0,1,4.1719-6.07723,51.50634,51.50634,0,0,1-3.25908-18.28025,52.437,52.437,0,0,1,5.18941-23.2794,47.5281,47.5281,0,0,1,16.16461-18.58293c10.24254-6.96936,23.15594-10.35722,39.47806-10.35722a79.2911,79.2911,0,0,1,9.921.85834c5.21322.42469,9.73839.63987,13.45852.63987a49.17337,49.17337,0,0,0,6.30206-.30633L882.324,96.73015l12.87621,2.896a38.93564,38.93564,0,0,1,9.66839,7.03584l10.61245,10.6988-1.48635,15.234a54.13607,54.13607,0,0,1-6.07064,20.81709,46.79628,46.79628,0,0,1,5.9017,11.99443,50.231,50.231,0,0,1,2.36387,17.78524,55.84713,55.84713,0,0,1-6.10427,25.13307,51.83567,51.83567,0,0,1-18.2698,19.91309C880.14583,235.74205,865.14078,239.39021,845.94294,239.39076ZM839.0116,128.2121"/><path class="cls-1" d="M934.0287,239.40592c-.94557,0-1.90609-.02082-2.85537-.06192l-.24088-.01041-.24071-.01443c-19.54669-1.16357-35.2905-7.77216-46.79435-19.6422a62.37236,62.37236,0,0,1-14.07684-23.13364,82.84876,82.84876,0,0,1-4.32155-25.66571l-.02274-1.19554.06425-1.19407c1.09485-20.34071,7.36319-36.87817,18.63068-49.15317a62.21481,62.21481,0,0,1,22.08772-15.40568A77.22382,77.22382,0,0,1,931.339,98.3696l1.52485-.09243,1.52618.06338a79.572,79.572,0,0,1,13.75445,1.76472,33.9288,33.9288,0,0,1,10.31874-3.9839l9.17518-.58454L976.013,97.7869a45.30286,45.30286,0,0,1,16.61133,11.636,44.17226,44.17226,0,0,1,10.16378,20.07858l1.28388,5.91684-.91592,5.98936a125.99452,125.99452,0,0,0-1.03813,23.39649c.9014,11.25866,2.34873,17.777,3.41315,21.27813l1.41334,4.64843v4.87183c0,21.37987-14.06825,37.97268-35.007,41.28894l-2.32307.36789H967.264a36.03014,36.03014,0,0,1-11.15173-1.71229,65.06405,65.06405,0,0,1-22.07808,3.85877Z"/><path class="cls-2" d="M811.0142,149.126q0-20.416,30.0218-20.42144c.90618,0,3.177.242,6.82311.70416q25.235,2.11251,33.43344-1.40833a8.34545,8.34545,0,0,1,2.04688,1.40833q-1.37521,14.09462-12.28164,14.08374-2.04687,0-5.45852-2.1125-3.42209-1.40286-4.77623-2.11269-12.28155-3.51537-19.787-3.52084-19.11006.70963-19.78722,13.37957.67167,11.27246,23.19869,11.26706,42.2982,0,40.939,21.83,0,26.06055-41.62132,25.35081-23.20381-.69321-34.11573-9.15456c-2.72917-1.87048-4.09376-4.225-4.09376-7.04187q0-4.91821,8.87-6.3377c.44778.4731.90619.9462,1.36459,1.40834q6.81258,12.67558,27.97491,12.6754,31.37593.70992,32.75115-16.90042-.6876-15.48129-31.38638-14.08392Q811.00332,169.55868,811.0142,149.126Z"/><path class="cls-2" d="M963.17023,201.94031v-7.746q-14.32869,14.0946-30.70426,13.37957-35.48563-2.11251-36.16261-37.322,2.04687-38.02648,36.8449-40.1389a44.85567,44.85567,0,0,1,29.33968,11.97124q-.68787-4.22529-1.36476-8.45039c0-3.75192,1.13007-5.86442,3.41164-6.3377q6.81231,2.82242,8.1877,9.15455a158.82174,158.82174,0,0,0-1.36459,30.28017q1.35929,17.61025,4.77623,28.87184,0,8.4503-8.87017,9.85872C964.53482,205.46133,963.17023,204.29484,963.17023,201.94031Zm0-17.60477-1.36476-28.16766q-8.18778-17.59381-28.65721-18.30894-25.251,3.53208-27.97473,32.39286,1.35927,26.7702,27.29244,29.576Q949.51322,199.13459,963.17023,184.33554Z"/><path class="cls-2" d="M300.492,194.89844q1.35928-21.12589.6823-43.65993a389.80829,389.80829,0,0,0-2.04688-41.54723q0-3.51537,6.14082-4.92918a15.34417,15.34417,0,0,1,8.18769,6.3377v3.52084q-4.78136,7.04745-3.41146,28.87183Q324.3729,130.124,339.384,129.40873q37.51658,2.11251,39.57425,40.13872-1.37547,38.02649-40.25655,38.73056-16.37556,0-27.29262-11.26707-.6876,8.45031-3.41164,11.26707h-2.04688Q299.122,204.76264,300.492,194.89844Zm10.23476-38.73056v28.87183q10.23466,13.38523,27.97491,15.49226,29.3288-2.80572,29.33951-30.98452-.68761-29.5759-27.97492-31.68851Q323.00309,137.85894,310.72677,156.16788Z"/><path class="cls-2" d="M422.62643,128.70457q.67167.70964,3.41146-2.11269a6.972,6.972,0,0,1,2.72935-1.40834,15.30446,15.30446,0,0,0,8.87,2.81686q32.75113,9.15994,34.11573,40.84288-2.73449,37.33328-41.62114,38.73056-37.5325-2.11251-40.25655-38.73056Q393.28144,134.34915,422.62643,128.70457Zm39.57408,40.13871q-1.37522-29.5759-30.70409-30.98434-32.07948,1.4193-32.06868,30.98434,1.35929,27.46341,30.70409,29.576Q459.46063,197.72607,462.20051,168.84328Z"/><path class="cls-2" d="M601.75791,72.86718q13.76268,8.52235,13.76269,19.88551-8.25762,17.04471-75.236,42.6118,46.79311,46.39952,88.08115,61.55037a4.13851,4.13851,0,0,1,0,3.78772q-20.18526,10.41621-31.19541,2.84078-4.58755-3.78771-11.01014-9.46928-58.72077-53.975-59.63828-53.028-5.50507,1.89385-19.26776,7.57543-.91751,7.57544.91751,19.88551a144.76353,144.76353,0,0,0,5.50508,28.40786q.91751,8.52237-8.25761,12.31008Q496.244,208.278,494.409,198.80872V186.49864q1.835-27.46093,1.835-37.87715,0-53.028-4.58756-64.39116-.91752-.94693.91751-4.73465l.91751-.94693q1.835-1.89385,17.43273-2.84078.91751,0,2.75254,2.84078-5.50507,21.77937-6.42259,54.92188,48.62814-14.20394,86.24614-41.66487A22.14226,22.14226,0,0,0,599.00538,74.761Q599.00538,73.81411,601.75791,72.86718Z"/><path class="cls-2" d="M703.20848,201.94031v-7.746q-14.32869,14.0946-30.70426,13.37957-35.48563-2.11251-36.16261-37.322,2.04687-38.02648,36.8449-40.1389a44.85567,44.85567,0,0,1,29.33968,11.97124q-.68787-4.22529-1.36476-8.45039c0-3.75192,1.13007-5.86442,3.41164-6.3377q6.81231,2.82242,8.1877,9.15455a158.82174,158.82174,0,0,0-1.36459,30.28017q1.35929,17.61025,4.77623,28.87184,0,8.4503-8.87017,9.85872C704.57307,205.46133,703.20848,204.29484,703.20848,201.94031Zm0-17.60477-1.36476-28.16766q-8.18778-17.59381-28.65721-18.30894-25.251,3.53208-27.97474,32.39286,1.35929,26.7702,27.29245,29.576Q689.55147,199.13459,703.20848,184.33554Z"/><path class="cls-2" d="M736.64192,136.4506v-2.81685q2.71855-3.51537,8.87-4.225c.90619-.46214,2.271,0,4.09394,1.40834,0,1.40834-.23451,3.99413-.68229,7.746q-1.37521,7.75709,0,12.6754,12.95322-17.59353,30.70409-18.30893,12.95347.70965,20.46951,7.04205,3.40615,4.225,0,9.85855-3.42235,4.93492-6.82312.70416-8.87565-7.74037-14.32869-8.4502-17.75077,1.4193-29.3395,19.71727-1.3752,11.27273,2.04688,35.20953c0,.9462.22389,1.40834.68229,1.40834q-.6876,8.4503-6.82311,9.85873-7.51611-.69321-6.82311-7.04187.67167-11.256,1.36459-24.64664-.6876-10.56307-1.36459-21.83A147.79026,147.79026,0,0,0,736.64192,136.4506Z"/><path class="cls-3" d="M161.12983,247.22552a44.25525,44.25525,0,0,1-36.68876-19.82559l-23.31271-34.72657H55.05364l14.2475-33.07a33.8736,33.8736,0,0,1-4.40234-21.68364,44.91742,44.91742,0,0,1,1.08623-5.58678c.53451-2.08711,1.15945-4.04326,1.573-5.3378.35084-1.09835.71428-2.23635,1.00295-3.28813l6.34865-23.13235H116.0074a3.54417,3.54417,0,0,0,.77654-1.97934l5.23751-49.76126,29.805,18.73655.71194-.58325,6.06763-1.71978a30.79414,30.79414,0,0,1,8.39787-1.16229c6.455,0,11.73231,2.01716,15.58567,3.49.82734.31619,1.67591.64042,2.4594.91222l21.19693,7.3513-.202,23.07774a97.45041,97.45041,0,0,1-19.915,58.63707l11.66479,17.37589a46.56341,46.56341,0,0,1,7.00386,16.81018,47.29864,47.29864,0,0,1,.222,17.63655,46.73363,46.73363,0,0,1-6.21166,16.43189A45.19509,45.19509,0,0,1,186.5284,239.027,43.44883,43.44883,0,0,1,161.12983,247.22552Z"/><path class="cls-3" d="M172.90222,124.09463a34.57344,34.57344,0,0,1-3.84164,2.27544l-4.02947,2.04729-4.428.77468a30.67456,30.67456,0,0,1-5.272.45557,35.14242,35.14242,0,0,1-16.5245-4.33608,74.62569,74.62569,0,0,1-8.78566-5.5791l-11.51319-8.151-1.73144-14.16557a3.31583,3.31583,0,0,0-.87119-2.004L76.23,85.30342,92.57615,56.25569a38.747,38.747,0,0,1,.27226-12.29729l.31442-1.68489.48827-1.64014a33.57056,33.57056,0,0,1,11.08828-16.42914l1.18738-8.49093,43.33439-5.77877q3.01358,1.24969,5.91507,2.7153a42.42416,42.42416,0,0,1,3.488-3.26493A40.07054,40.07054,0,0,1,184.28037,0a39.60726,39.60726,0,0,1,20.30314,5.60467A41.33547,41.33547,0,0,1,216.48966,16.3031a43.76435,43.76435,0,0,1,8.56327,30.699,42.89581,42.89581,0,0,1-15.131,29.00755,40.68032,40.68032,0,0,1-5.51578,3.88124q.69124,3.78306,1.096,7.65434L197.105,134.6188Z"/><path class="cls-3" d="M75.0882,130.6981a37.64989,37.64989,0,0,1-15.76412-3.44284,39.0774,39.0774,0,0,1-12.48521-9.07,42.18745,42.18745,0,0,1,0-56.804,39.0774,39.0774,0,0,1,12.48521-9.07,37.8119,37.8119,0,0,1,31.52824,0,39.07807,39.07807,0,0,1,12.48513,9.07,42.18719,42.18719,0,0,1,0,56.804,39.07807,39.07807,0,0,1-12.48513,9.07A37.64989,37.64989,0,0,1,75.0882,130.6981Z"/><path class="cls-3" d="M126.37782,130.6981a37.64989,37.64989,0,0,1-15.76412-3.44284,39.07807,39.07807,0,0,1-12.48513-9.07,42.18719,42.18719,0,0,1,0-56.804,39.07807,39.07807,0,0,1,12.48513-9.07,37.8119,37.8119,0,0,1,31.52824,0,39.07818,39.07818,0,0,1,12.48513,9.07,42.18722,42.18722,0,0,1,0,56.804,39.07818,39.07818,0,0,1-12.48513,9.07A37.64989,37.64989,0,0,1,126.37782,130.6981Z"/><path class="cls-3" d="M101.5849,151.76124a50.97589,50.97589,0,0,1-20.95437-4.47964,53.20671,53.20671,0,0,1-17.39-12.54864,35.07293,35.07293,0,0,1,1.09379-48.48389,32.3709,32.3709,0,0,1,37.25087-6.128,32.37016,32.37016,0,0,1,37.24911,6.12672,35.07294,35.07294,0,0,1,1.09375,48.48645,53.20314,53.20314,0,0,1-17.38879,12.54736A50.97591,50.97591,0,0,1,101.5849,151.76124Z"/><path class="cls-3" d="M0,49.46827A47.06129,47.06129,0,0,1,3.519,31.53416a45.96465,45.96465,0,0,1,9.54945-14.62772A44.3805,44.3805,0,0,1,27.2416,7.05064,43.183,43.183,0,0,1,44.61889,3.41873H78.167L82.2156,23.42462A34.24909,34.24909,0,0,1,86.803,26.79641l2.155,1.8776s1.81232,2.27964,1.82391,2.29425h8.03169l.0046,31.9994c.0004.0232.67711,32.55.67711,32.55h-.67711v.354H88.81283V135.968L66.12476,130.564q-.06225.11973-.12579.23965l-.28168.53192-.30106.52041c-3.36072,5.80852-10.08693,13.28221-23.04541,15.90033a64.47952,64.47952,0,0,1-10.3617,1.09306L0,150.1359Z"/><path class="cls-3" d="M45.35747,95.51761l-.66181-27.79009L42.574,66.58258l-3.93872-4.876C33.084,54.8342,31.67085,47.59889,30.53537,41.78543l22.562-38.3667h63.40713a85.52914,85.52914,0,0,1,22.66838,3.05451l82.57866,22.70145L147.995,64.245l.00009.00713-.90631,3.88471c-2.82471,12.10823-11.19917,18.35387-15.22369,21.35558l-8.07871,6.02516Z"/><path class="cls-3" d="M44.61889,250a43.18256,43.18256,0,0,1-17.3772-3.6319,44.37994,44.37994,0,0,1-14.17312-9.85563A45.96758,45.96758,0,0,1,3.519,221.88494,47.0608,47.0608,0,0,1,0,203.95065V93.59106l19.747-.77267A32.43361,32.43361,0,0,1,33.59167,78.348a40.57155,40.57155,0,0,1,5.05547-2.28987c1.90432-.72043,3.73762-1.28559,4.95079-1.6595,1.27-.39127,2.46595-.75988,3.51023-1.16722L88.81283,56.96077v43.27962H98.81821v.33427H132.9577l-10.83621,35.64062a37.00975,37.00975,0,0,1,2.9428,5.45288l.09367.21481.09058.21627c2.52276,6.021,4.46464,15.77594-.61115,28.05624a61.27881,61.27881,0,0,1-3.25469,6.62522l-8.89535,15.89266H89.23778v11.27729a47.06084,47.06084,0,0,1-3.51907,17.93429,45.96679,45.96679,0,0,1-9.5495,14.62753,44.37983,44.37983,0,0,1-14.17312,9.85563A43.18256,43.18256,0,0,1,44.61889,250Z"/><path class="cls-4" d="M94.18543,151.54988a24.38333,24.38333,0,0,1-4.24544-4.4525c-2.50387-3.53029-1.19459-7.62959.32168-12.37631.237-.74187.487-1.52719.73662-2.34835H68.00793v-.33427h-.48672c-5.257,0-9.51866-4.60781-9.51866-10.29183V102.97518c-2.04414.79753-3.9196,1.37765-5.58649,1.89135-1.83493.56543-4.90605,1.51184-5.09,2.1407a20.07279,20.07279,0,0,0-.65229,4.64329,16.851,16.851,0,0,1-1.65255,7.32144c-2.46617,4.65715-8.89353,5.02654-14.21091,5.23455V203.9507a14.03521,14.03521,0,0,0,13.80861,14.25124A14.03521,14.03521,0,0,0,58.4275,203.9507V160.87516H94.70383a30.94216,30.94216,0,0,0,1.59405-3.19634c.92787-2.24492.674-2.95208.67123-2.95865A9.17359,9.17359,0,0,0,94.18543,151.54988Z"/><path class="cls-4" d="M185.36372,31.85948A9.63,9.63,0,0,0,178.0523,34.098a11.02647,11.02647,0,0,0-3.862,7.46821,11.51692,11.51692,0,0,0,.98061,5.90927l-14.73364,8.86522q-1.05384-1.26741-2.17476-2.48451a58.3909,58.3909,0,0,0-20.48845-14.41614,3.86387,3.86387,0,0,1-1.65387,3.71036,29.83828,29.83828,0,0,1-5.14676,2.41481,45.70986,45.70986,0,0,0-5.68914,2.58851c-1.91688,1.12-2.17953,1.81134-2.18157,1.818a10.138,10.138,0,0,0,.48681,4.29591,27.25684,27.25684,0,0,1,.94583,6.31765,7.7827,7.7827,0,0,1-1.02371,4.01176c12.47137,3.1775,22.098,14.647,23.83266,28.83895l.15186.10791a48.63435,48.63435,0,0,0,5.21693,3.39266c1.91405.99931,2.64617.921,2.74006.90469a9.08462,9.08462,0,0,0,2.88608-2.94815,24.568,24.568,0,0,1,4.15181-4.55908c3.42952-2.80065,7.49735-1.24538,11.80385.40083.18841.072.38044.14535.57451.21926a65.20938,65.20938,0,0,0-8.0985-25.45179l11.3536-14.15279a9.72213,9.72213,0,0,0,5.0987,2.18512,9.57957,9.57957,0,0,0,7.31134-2.23855,11.02612,11.02612,0,0,0,3.862-7.46821C194.97662,37.86053,190.92454,32.49168,185.36372,31.85948Zm5.598,11.61267a7.45559,7.45559,0,0,1-2.59944,5.055,6.26947,6.26947,0,0,1-4.76119,1.46606,6.34813,6.34813,0,0,1-3.27642-1.38628l2.23475-2.78571a3.18783,3.18783,0,0,0,1.38149.50257,3.44933,3.44933,0,0,0,3.70687-3.24554,3.58719,3.58719,0,0,0-3.00174-4.0079,3.44927,3.44927,0,0,0-3.70686,3.24555,3.89984,3.89984,0,0,0,.17371,1.58433L178.16663,45.673a7.90585,7.90585,0,0,1-.54141-3.75093,7.45581,7.45581,0,0,1,2.59926-5.055,6.31244,6.31244,0,0,1,4.06191-1.50588,6.16816,6.16816,0,0,1,.69946.03983C188.6728,35.82,191.35357,39.44076,190.96171,43.47215Z"/><path class="cls-4" d="M62.30056,41.3453a12.5032,12.5032,0,0,0,3.2927,1.11064,13.009,13.009,0,0,1,6.16206,2.84654c3.6304,3.20173,3.6373,9.88508,3.64332,15.78162.00089.90558.00186,1.82644.02115,2.63545H113.819c1.48246-1.1057,3.17775-2.43554,3.31554-3.026a19.85973,19.85973,0,0,0-.727-4.577,17.21408,17.21408,0,0,1-.56946-7.60591c1.02264-5.46825,7.35744-8.01609,12.44783-10.06338,1.06919-.43,2.16325-.87,2.9566-1.2473a55.52083,55.52083,0,0,0-14.73807-1.98311H60.68234l.0554.28308C61.16411,37.683,61.7449,40.65721,62.30056,41.3453Z"/><path class="cls-4" d="M38.96311,115.55389a10.38307,10.38307,0,0,0,.81946-4.34459,26.672,26.672,0,0,1,.934-6.26185c1.258-4.29972,5.3703-5.56705,9.72406-6.90876,1.67086-.51477,3.56465-1.09838,5.53489-1.89107a3.33562,3.33562,0,0,1,2.02706-.1522V74.36529c0-5.684,4.26163-10.2918,9.51866-10.2918h.48672v-.35394h.0084c-.00354-.17038-.0061-.34475-.0084-.52008v-.43315h-.0046c-.0047-.53723-.006-1.09379-.00664-1.6742a64.725,64.725,0,0,0-.23522-6.70543c-.282-2.52363-.76743-3.20974-.83335-3.29279A6.26532,6.26532,0,0,0,63.94364,49.903a19.089,19.089,0,0,1-5.21676-1.8666c-3.466-1.91648-4.25111-5.937-5.24517-11.02714-.11212-.57415-.22982-1.17452-.35486-1.79243h-8.508A14.03523,14.03523,0,0,0,30.81028,49.46822v67.60723a37.91549,37.91549,0,0,0,5.64144-.52488C38.543,116.128,38.95984,115.55944,38.96311,115.55389Z"/><ellipse class="cls-4" cx="75.0882" cy="89.78325" rx="8.43185" ry="9.11675"/><path class="cls-4" d="M114.14627,109.33339a16.80482,16.80482,0,0,1-25.12273,0,2.36386,2.36386,0,0,0-3.41651-.082,2.55065,2.55065,0,0,0-.07947,3.526,21.5338,21.5338,0,0,0,32.11478,0,2.55075,2.55075,0,0,0-.07947-3.526A2.36412,2.36412,0,0,0,114.14627,109.33339Z"/><ellipse class="cls-4" cx="126.37782" cy="89.78325" rx="8.43185" ry="9.11675"/><path class="cls-4" d="M158.26251,142.23592a64.70534,64.70534,0,0,0,16.97238-43.58667c-1.20087-.41657-2.31086-.83966-3.338-1.2323-1.86715-.71376-4.41721-1.68884-5.132-1.48633a17.9928,17.9928,0,0,0-2.97006,3.33,15.22034,15.22034,0,0,1-5.3541,5.00491,6.791,6.791,0,0,1-3.08094.71189c-2.6128.00018-5.35614-1.32041-7.94575-2.94824-1.79538,17.05783-14.97108,30.34335-30.90931,30.34351H98.205c-.46017,1.677-.94442,3.19639-1.38618,4.57933-.641,2.00647-1.71343,5.3644-1.30777,5.93658a17.75919,17.75919,0,0,0,3.1112,3.20157,15.60669,15.60669,0,0,1,4.64287,5.70548c1.2191,2.79566.54672,5.96936-.79326,9.07948h14.03258c.25159,0,.50221-.00651.75327-.00986L149.767,209.29115a13.67094,13.67094,0,0,0,11.3628,6.13636,13.44986,13.44986,0,0,0,7.85177-2.53812,14.54162,14.54162,0,0,0,3.48651-19.8307l-27.047-40.28919A59.66507,59.66507,0,0,0,158.26251,142.23592Z"/><path class="cls-5" d="M72.01346,203.85439a1.75417,1.75417,0,0,0-1.726-1.77732h-.00407c-.01841.00005-.03628.00233-.0546.003q-.04128-.66527-.112-1.32135c.01868-.00274.03726-.0042.056-.00758a1.77732,1.77732,0,0,0,1.40184-2.06245,30.49889,30.49889,0,0,0-1.29857-5.01613,1.71231,1.71231,0,0,0-2.21227-1.06493c-.01806.0068-.03487.01557-.05257.02292q-.25911-.60963-.54521-1.20256c.017-.00941.03469-.01622.05141-.02631a1.813,1.813,0,0,0,.62468-2.43545,28.99574,28.99574,0,0,0-2.91333-4.24292,1.68942,1.68942,0,0,0-2.4336-.19764c-.01513.01338-.0284.02818-.043.042q-.44973-.47546-.92123-.92624c.01328-.01581.02779-.02982.04062-.04622a1.82068,1.82068,0,0,0-.25831-2.50523,26.66567,26.66567,0,0,0-4.21482-2.88043,1.69938,1.69938,0,0,0-2.33484.73486c-.00974.01886-.01708.03836-.02611.0574q-.58632-.26926-1.18751-.50712c.00673-.02027.01443-.04.02053-.06064a1.79182,1.79182,0,0,0-1.15229-2.221,25.03318,25.03318,0,0,0-4.97109-1.01269,1.74378,1.74378,0,0,0-1.88361,1.60251c-.002.02155-.00151.0427-.00283.06411-.19938-.00506-.3992-.00819-.59982-.00819q-.34353,0-.68468.01043c-.00133-.02132-.001-.04238-.0031-.06379a1.742,1.742,0,0,0-1.88892-1.59575,25.01713,25.01713,0,0,0-4.96755,1.03059,1.7922,1.7922,0,0,0-1.14468,2.22521c.00619.02086.014.04073.02088.06119q-.59985.23947-1.18476.51127c-.00912-.01927-.01664-.0389-.02655-.0579a1.69961,1.69961,0,0,0-2.33732-.72664,26.6646,26.6646,0,0,0-4.20535,2.895,1.82052,1.82052,0,0,0-.25009,2.506c.01283.01635.02744.03028.04071.046q-.47018.45235-.91884.92948c-.0146-.0137-.02779-.02845-.043-.04174a1.68939,1.68939,0,0,0-2.43289.20568,29.00325,29.00325,0,0,0-2.90085,4.25369,1.813,1.813,0,0,0,.6322,2.43345c.01673.01.03425.01667.05115.026q-.28432.59464-.54221,1.206c-.01752-.00717-.034-.01575-.05176-.02237a1.71138,1.71138,0,0,0-2.209,1.07205,30.50917,30.50917,0,0,0-1.283,5.02051,1.77683,1.77683,0,0,0,1.4083,2.05771c.01876.00329.03735.00475.056.0074q-.06849.65609-.10788,1.32134c-.01778-.00059-.03531-.00278-.05327-.00278h-.00177a1.75458,1.75458,0,0,0-1.72441,1.78316,31.30489,31.30489,0,0,0,.43363,5.16628,1.7428,1.7428,0,0,0,1.69839,1.47574,1.697,1.697,0,0,0,.2984-.02667c.01858-.00333.03628-.00886.0546-.01279q.15093.64746.33035,1.28217c-.018.00607-.03619.01041-.05416.01712a1.79749,1.79749,0,0,0-1.03423,2.282,29.80379,29.80379,0,0,0,2.12891,4.70907,1.716,1.716,0,0,0,1.49476.88793,1.67792,1.67792,0,0,0,.86442-.24075c.01681-.01005.032-.02183.04823-.03238q.3588.5519.74167,1.08352c-.01522.01251-.03115.02347-.0461.03662a1.82111,1.82111,0,0,0-.194,2.51126,27.8905,27.8905,0,0,0,3.6112,3.637,1.68522,1.68522,0,0,0,1.08512.39711,1.7026,1.7026,0,0,0,1.34255-.66051c.01274-.01626.02336-.03361.03548-.05019q.5262.38127,1.07123.73381c-.01044.01845-.02212.03571-.03186.05471a1.81042,1.81042,0,0,0,.7092,2.41061,25.5436,25.5436,0,0,0,4.67782,2.00236,1.67768,1.67768,0,0,0,.50248.07745,1.73421,1.73421,0,0,0,1.65095-1.26385c.00628-.02142.01-.043.01558-.06444q.62429.14612,1.26.25834c-.00292.022-.00734.04338-.00947.06566a1.76716,1.76716,0,0,0,1.55052,1.94574c.83132.08366,1.67812.126,2.517.126a25.21434,25.21434,0,0,0,2.546-.129,1.76736,1.76736,0,0,0,1.5483-1.94756c-.00221-.02229-.00672-.04366-.00955-.06567q.63529-.11281,1.25972-.25975c.00548.02137.00929.04283.01557.06421a1.73414,1.73414,0,0,0,1.65034,1.262,1.67826,1.67826,0,0,0,.50433-.078,25.56152,25.56152,0,0,0,4.67472-2.00729,1.81053,1.81053,0,0,0,.7069-2.41134c-.00982-.01891-.02142-.03613-.03177-.05453q.54411-.35331,1.07034-.73476c.01213.01648.02266.0337.0354.04986a1.68891,1.68891,0,0,0,2.42785.26085,27.91059,27.91059,0,0,0,3.6081-3.6414,1.82112,1.82112,0,0,0-.19654-2.51108c-.015-.01315-.031-.02407-.0462-.03658q.38283-.53209.74123-1.08521c.01646.0106.03177.02243.04867.03256a1.678,1.678,0,0,0,.86274.23966,1.71592,1.71592,0,0,0,1.49565-.88957,29.82122,29.82122,0,0,0,2.12457-4.71273,1.79763,1.79763,0,0,0-1.03662-2.28092c-.01805-.00671-.03637-.01105-.05443-.01708q.17868-.635.329-1.28276c.01849.00393.03619.00946.05486.01279a1.676,1.676,0,0,0,.29655.02649,1.743,1.743,0,0,0,1.69874-1.47775,31.32349,31.32349,0,0,0,.42823-5.1703Z"/><path class="cls-3" d="M45.26083,182.05808c-11.166,0-20.21783,9.78708-20.21783,21.86s9.05185,21.86,20.21783,21.86,20.21783-9.787,20.21783-21.86S56.4269,182.05808,45.26083,182.05808Zm0,29.15341a7.31566,7.31566,0,0,1,0-14.5868,7.31564,7.31564,0,0,1,0,14.5868Z"/><path class="cls-5" d="M188.32068,201.78243a1.75412,1.75412,0,0,0-1.726-1.77732h-.004c-.0185,0-.03637.00233-.05469.003q-.04128-.66512-.112-1.32116c.01868-.00274.03726-.0042.05593-.00758a1.77732,1.77732,0,0,0,1.40193-2.06246,30.49125,30.49125,0,0,0-1.29865-5.01612,1.71212,1.71212,0,0,0-2.21219-1.06493c-.01806.00675-.03478.01552-.05248.02287q-.25925-.6097-.5453-1.20279c.017-.00945.03477-.01626.05159-.0264a1.81322,1.81322,0,0,0,.62459-2.43545,28.98339,28.98339,0,0,0-2.91342-4.24291,1.68942,1.68942,0,0,0-2.4336-.19765c-.01513.01338-.0284.02822-.043.042q-.44973-.47532-.92122-.92606c.01336-.01585.02787-.02987.0407-.04626a1.82059,1.82059,0,0,0-.25831-2.50524,26.67319,26.67319,0,0,0-4.21482-2.88042,1.69933,1.69933,0,0,0-2.33493.73485c-.00974.01886-.01708.03832-.026.05736q-.58646-.26927-1.18751-.50716c.00664-.02023.01434-.03992.02044-.06056a1.79183,1.79183,0,0,0-1.15229-2.221,25.03316,25.03316,0,0,0-4.97109-1.01268,1.74257,1.74257,0,0,0-1.88361,1.6025c-.002.02151-.0015.04263-.00283.064-.19938-.00507-.39929-.0082-.59982-.0082q-.34339,0-.68459.01044c-.00133-.02142-.001-.04256-.003-.06407a1.7394,1.7394,0,0,0-1.88918-1.59557,25.03472,25.03472,0,0,0-4.96738,1.03077,1.79217,1.79217,0,0,0-1.14477,2.22521c.00619.02082.01407.04067.02088.0611q-.59985.23947-1.18476.51123c-.00912-.01918-.01664-.03877-.02655-.05777a1.69946,1.69946,0,0,0-2.33723-.72663,26.66393,26.66393,0,0,0-4.20535,2.895,1.82045,1.82045,0,0,0-.25018,2.506c.01283.0163.02735.03023.04062.04594q-.47.45237-.91875.92948c-.0146-.0137-.02779-.0284-.043-.04164a1.68923,1.68923,0,0,0-2.43289.20568,28.99163,28.99163,0,0,0-2.90094,4.25369,1.813,1.813,0,0,0,.6322,2.43344c.01673.01.03434.01667.05124.026q-.28432.59457-.54221,1.20581c-.01752-.00717-.03407-.01576-.05194-.02238a1.71161,1.71161,0,0,0-2.20892,1.072,30.48176,30.48176,0,0,0-1.2829,5.02052,1.77668,1.77668,0,0,0,1.4083,2.0577c.01867.00334.03735.00475.056.00745q-.06862.656-.10788,1.3213c-.01787-.0006-.03531-.00279-.05336-.00279h-.00186a1.75432,1.75432,0,0,0-1.72423,1.78316,31.30583,31.30583,0,0,0,.43354,5.16628,1.74286,1.74286,0,0,0,1.69839,1.47574,1.697,1.697,0,0,0,.2984-.02667c.01859-.00333.03628-.00886.0546-.01278q.15106.64745.33044,1.28216c-.018.00607-.03628.01041-.05416.01712a1.79754,1.79754,0,0,0-1.03432,2.282,29.81192,29.81192,0,0,0,2.129,4.70907,1.71579,1.71579,0,0,0,1.49476.88793,1.67761,1.67761,0,0,0,.86433-.24075c.01681-.01.032-.02183.04832-.03233q.35866.5519.74167,1.08352c-.01531.01255-.03133.02356-.04628.03676a1.82123,1.82123,0,0,0-.1938,2.51144,27.91445,27.91445,0,0,0,3.61111,3.63665,1.6854,1.6854,0,0,0,1.08512.39711,1.7029,1.7029,0,0,0,1.34264-.66051c.01274-.01625.02327-.03352.0354-.05014q.52618.38133,1.07122.73381c-.01035.01845-.022.03571-.03177.05466a1.81047,1.81047,0,0,0,.70911,2.41061,25.54638,25.54638,0,0,0,4.67791,2.00236,1.67736,1.67736,0,0,0,.50248.07745,1.73421,1.73421,0,0,0,1.65095-1.26385c.00628-.02137.01-.04288.01549-.06434q.62442.1461,1.26007.25833c-.00292.022-.00734.04334-.00947.06558a1.76715,1.76715,0,0,0,1.55052,1.94573c.83132.08366,1.67812.126,2.517.126a25.21568,25.21568,0,0,0,2.546-.129,1.76728,1.76728,0,0,0,1.54821-1.94756c-.00212-.02224-.00663-.04361-.00955-.06558q.63543-.11281,1.25972-.25975c.00557.02138.00929.04279.01557.06412a1.73426,1.73426,0,0,0,1.65043,1.262,1.67812,1.67812,0,0,0,.50424-.078,25.56273,25.56273,0,0,0,4.67482-2.00729,1.81069,1.81069,0,0,0,.70689-2.41134c-.00982-.01891-.02142-.03608-.03186-.05443q.54425-.35333,1.07043-.73482c.01213.01649.02266.03366.03531.04983a1.6889,1.6889,0,0,0,2.42785.26084,27.89868,27.89868,0,0,0,3.6081-3.6414,1.821,1.821,0,0,0-.19645-2.51108c-.015-.01315-.031-.02407-.0462-.03658q.38283-.53209.74123-1.08516c.01646.0106.03168.02242.04867.03252a1.678,1.678,0,0,0,.86265.23965,1.716,1.716,0,0,0,1.49574-.88957,29.82122,29.82122,0,0,0,2.12457-4.71273,1.79763,1.79763,0,0,0-1.03662-2.28092c-.018-.00671-.03637-.011-.05443-.01717q.17868-.63484.329-1.28266c.0184.00392.03619.00945.05486.01278a1.676,1.676,0,0,0,.29655.02649,1.743,1.743,0,0,0,1.69874-1.47775,31.32105,31.32105,0,0,0,.42823-5.16628Z"/><path class="cls-3" d="M161.56805,179.986c-11.166,0-20.21783,9.78707-20.21783,21.86s9.05185,21.86,20.21783,21.86,20.21783-9.78708,20.21783-21.86S172.734,179.986,161.56805,179.986Zm0,29.1534a7.31565,7.31565,0,1,1,6.7455-7.29339A7.0355,7.0355,0,0,1,161.56805,209.13944Z"/><path class="cls-2" d="M233.62531,128.70457q.67168.70964,3.41147-2.11269a6.972,6.972,0,0,1,2.72935-1.40834,15.30445,15.30445,0,0,0,8.87,2.81686q32.75115,9.15994,34.11574,40.84288-2.73449,37.33328-41.62114,38.73056-37.53251-2.11251-40.25655-38.73056Q204.28033,134.34915,233.62531,128.70457Zm39.57408,40.13871q-1.3752-29.5759-30.70408-30.98434-32.07948,1.4193-32.06868,30.98434,1.35929,27.46341,30.70409,29.576Q270.45952,197.72607,273.19939,168.84328Z"/></svg>